# Blender v2.79 (sub 0) OBJ File: 'rubik.blend'
# www.blender.org
v 0.400000 0.400000 0.500000
v 0.500000 0.400000 0.400000
v 0.400000 0.500000 0.400000
v -0.500000 0.475000 -0.475000
v -0.475000 0.500000 -0.475000
v -0.475000 0.475000 -0.500000
v 0.475000 -0.475000 -0.500000
v 0.500000 -0.475000 -0.475000
v 0.475000 -0.500000 -0.475000
v -0.475000 -0.500000 0.475000
v -0.475000 -0.475000 0.500000
v -0.500000 -0.475000 0.475000
v -0.475000 -0.475000 -0.500000
v -0.475000 -0.500000 -0.475000
v -0.500000 -0.475000 -0.475000
v 0.389645 0.475000 -0.500000
v 0.400000 0.500000 -0.475000
v 0.475000 0.389645 -0.500000
v 0.500000 0.400000 -0.475000
v -0.500000 0.389645 0.475000
v -0.475000 0.400000 0.500000
v -0.500000 0.475000 0.389645
v -0.475000 0.500000 0.400000
v 0.475000 -0.500000 0.389645
v 0.500000 -0.475000 0.400000
v 0.389645 -0.500000 0.475000
v 0.400000 -0.475000 0.500000
v 0.400000 0.500000 0.400000
v 0.400000 0.500000 0.400000
v 0.400000 0.500000 0.400000
v 0.400000 0.400000 0.500000
v 0.400000 0.400000 0.500000
v 0.400000 0.400000 0.500000
v 0.500000 0.400000 0.400000
v 0.500000 0.400000 0.400000
v 0.500000 0.400000 0.400000
v -0.475000 0.475000 -0.500000
v -0.475000 0.475000 -0.500000
v -0.475000 0.475000 -0.500000
v -0.500000 0.475000 -0.475000
v -0.500000 0.475000 -0.475000
v -0.500000 0.475000 -0.475000
v -0.475000 0.500000 -0.475000
v -0.475000 0.500000 -0.475000
v -0.475000 0.500000 -0.475000
v 0.475000 -0.500000 -0.475000
v 0.475000 -0.500000 -0.475000
v 0.475000 -0.500000 -0.475000
v 0.475000 -0.475000 -0.500000
v 0.475000 -0.475000 -0.500000
v 0.475000 -0.475000 -0.500000
v 0.500000 -0.475000 -0.475000
v 0.500000 -0.475000 -0.475000
v 0.500000 -0.475000 -0.475000
v -0.500000 -0.475000 0.475000
v -0.500000 -0.475000 0.475000
v -0.500000 -0.475000 0.475000
v -0.475000 -0.500000 0.475000
v -0.475000 -0.500000 0.475000
v -0.475000 -0.500000 0.475000
v -0.475000 -0.475000 0.500000
v -0.475000 -0.475000 0.500000
v -0.475000 -0.475000 0.500000
v -0.500000 -0.475000 -0.475000
v -0.500000 -0.475000 -0.475000
v -0.500000 -0.475000 -0.475000
v -0.475000 -0.475000 -0.500000
v -0.475000 -0.475000 -0.500000
v -0.475000 -0.475000 -0.500000
v -0.475000 -0.500000 -0.475000
v -0.475000 -0.500000 -0.475000
v -0.475000 -0.500000 -0.475000
v -0.475000 0.500000 0.400000
v -0.475000 0.500000 0.400000
v -0.475000 0.500000 0.400000
v -0.500000 0.475000 0.389645
v -0.500000 0.475000 0.389645
v -0.500000 0.389645 0.475000
v -0.500000 0.389645 0.475000
v -0.475000 0.400000 0.500000
v -0.475000 0.400000 0.500000
v -0.475000 0.400000 0.500000
v 0.500000 0.400000 -0.475000
v 0.500000 0.400000 -0.475000
v 0.500000 0.400000 -0.475000
v 0.475000 0.389645 -0.500000
v 0.475000 0.389645 -0.500000
v 0.389645 0.475000 -0.500000
v 0.389645 0.475000 -0.500000
v 0.400000 0.500000 -0.475000
v 0.400000 0.500000 -0.475000
v 0.400000 0.500000 -0.475000
v 0.400000 -0.475000 0.500000
v 0.400000 -0.475000 0.500000
v 0.400000 -0.475000 0.500000
v 0.389645 -0.500000 0.475000
v 0.389645 -0.500000 0.475000
v 0.475000 -0.500000 0.389645
v 0.475000 -0.500000 0.389645
v 0.500000 -0.475000 0.400000
v 0.500000 -0.475000 0.400000
v 0.500000 -0.475000 0.400000
vn 0.0000 0.0000 1.0000
vn 1.0000 0.0000 0.0000
vn 0.0000 1.0000 0.0000
vn 0.0000 -1.0000 0.0000
vn 0.0000 0.0000 -1.0000
vn 0.5773 0.5773 0.5773
vn 0.7071 0.0000 0.7071
vn 0.0000 0.7071 0.7071
vn 0.7071 0.7071 0.0000
vn -0.5773 0.5773 -0.5773
vn 0.5773 -0.5773 -0.5773
vn -0.5773 -0.5773 0.5773
vn -0.5773 -0.5773 -0.5773
vn -0.7071 0.0000 -0.7071
vn -0.7071 -0.7071 0.0000
vn 0.0000 -0.7071 -0.7071
vn -0.7071 0.5000 0.5000
vn 0.5000 0.5000 -0.7071
vn 0.5000 -0.7071 0.5000
vn -0.7071 0.0000 0.7071
vn 0.0000 -0.7071 0.7071
vn 0.0000 0.7071 -0.7071
vn -0.7071 0.7071 0.0000
vn 0.7071 -0.7071 0.0000
vn 0.7071 0.0000 -0.7071
vn -1.0000 0.0000 0.0000
s 1
f 62//1 32//1 82//1
f 53//2 35//2 102//2
f 92//3 75//3 29//3
f 71//4 98//4 97//4
f 87//5 68//5 88//5
f 31//6 34//6 28//6
f 94//7 2//7 1//7
f 33//8 74//8 81//8
f 84//9 3//9 36//9
f 40//10 43//10 37//10
f 49//11 52//11 46//11
f 58//12 61//12 55//12
f 67//13 70//13 64//13
f 69//14 41//14 39//14
f 60//15 66//15 14//15
f 51//16 72//16 13//16
f 78//17 73//17 76//17
f 89//18 83//18 86//18
f 99//19 93//19 96//19
f 79//20 63//20 21//20
f 26//21 11//21 10//21
f 16//22 45//22 17//22
f 77//23 5//23 42//23
f 24//24 54//24 25//24
f 18//25 8//25 7//25
f 22//26 4//26 15//26
f 62//1 95//1 32//1
f 53//2 85//2 35//2
f 92//3 44//3 75//3
f 97//4 59//4 71//4
f 71//4 47//4 98//4
f 50//5 68//5 87//5
f 68//5 38//5 88//5
f 94//7 101//7 2//7
f 33//8 30//8 74//8
f 84//9 91//9 3//9
f 69//14 65//14 41//14
f 60//15 56//15 66//15
f 51//16 48//16 72//16
f 78//17 80//17 73//17
f 89//18 90//18 83//18
f 99//19 100//19 93//19
f 79//20 57//20 63//20
f 26//21 27//21 11//21
f 16//22 6//22 45//22
f 77//23 23//23 5//23
f 24//24 9//24 54//24
f 18//25 19//25 8//25
f 12//26 20//26 15//26
f 20//26 22//26 15//26
