# Blender v2.79 (sub 0) OBJ File: 'rubik.blend'
# www.blender.org
v 0.400000 0.500000 0.400000
v 0.400000 0.400000 0.500000
v 0.500000 0.400000 0.400000
v 0.475000 -0.475000 -0.500000
v 0.500000 -0.475000 -0.475000
v 0.475000 -0.500000 -0.475000
v -0.475000 -0.500000 0.475000
v -0.475000 -0.475000 0.500000
v -0.500000 -0.475000 0.475000
v -0.500000 0.475000 -0.475000
v -0.475000 0.500000 -0.475000
v -0.475000 0.475000 -0.500000
v -0.475000 -0.500000 -0.475000
v -0.500000 -0.475000 -0.475000
v -0.475000 -0.475000 -0.500000
v 0.475000 -0.500000 0.389645
v 0.500000 -0.475000 0.400000
v 0.389644 -0.500000 0.475000
v 0.400000 -0.475000 0.500000
v 0.389645 0.475000 -0.500000
v 0.400000 0.500000 -0.475000
v 0.475000 0.389644 -0.500000
v 0.500000 0.400000 -0.475000
v -0.500000 0.389645 0.475000
v -0.475000 0.400000 0.500000
v -0.500000 0.475000 0.389644
v -0.475000 0.500000 0.400000
v 0.500000 0.400000 0.400000
v 0.500000 0.400000 0.400000
v 0.500000 0.400000 0.400000
v 0.400000 0.500000 0.400000
v 0.400000 0.500000 0.400000
v 0.400000 0.500000 0.400000
v 0.400000 0.400000 0.500000
v 0.400000 0.400000 0.500000
v 0.400000 0.400000 0.500000
v 0.475000 -0.500000 -0.475000
v 0.475000 -0.500000 -0.475000
v 0.475000 -0.500000 -0.475000
v 0.475000 -0.475000 -0.500000
v 0.475000 -0.475000 -0.500000
v 0.475000 -0.475000 -0.500000
v 0.500000 -0.475000 -0.475000
v 0.500000 -0.475000 -0.475000
v 0.500000 -0.475000 -0.475000
v -0.500000 -0.475000 0.475000
v -0.500000 -0.475000 0.475000
v -0.500000 -0.475000 0.475000
v -0.475000 -0.500000 0.475000
v -0.475000 -0.500000 0.475000
v -0.475000 -0.500000 0.475000
v -0.475000 -0.475000 0.500000
v -0.475000 -0.475000 0.500000
v -0.475000 -0.475000 0.500000
v -0.475000 0.475000 -0.500000
v -0.475000 0.475000 -0.500000
v -0.475000 0.475000 -0.500000
v -0.500000 0.475000 -0.475000
v -0.500000 0.475000 -0.475000
v -0.500000 0.475000 -0.475000
v -0.475000 0.500000 -0.475000
v -0.475000 0.500000 -0.475000
v -0.475000 0.500000 -0.475000
v -0.475000 -0.475000 -0.500000
v -0.475000 -0.475000 -0.500000
v -0.475000 -0.475000 -0.500000
v -0.475000 -0.500000 -0.475000
v -0.475000 -0.500000 -0.475000
v -0.475000 -0.500000 -0.475000
v -0.500000 -0.475000 -0.475000
v -0.500000 -0.475000 -0.475000
v -0.500000 -0.475000 -0.475000
v 0.500000 0.400000 -0.475000
v 0.500000 0.400000 -0.475000
v 0.500000 0.400000 -0.475000
v 0.475000 0.389644 -0.500000
v 0.475000 0.389644 -0.500000
v 0.389645 0.475000 -0.500000
v 0.389645 0.475000 -0.500000
v 0.400000 0.500000 -0.475000
v 0.400000 0.500000 -0.475000
v 0.400000 0.500000 -0.475000
v 0.400000 -0.475000 0.500000
v 0.400000 -0.475000 0.500000
v 0.400000 -0.475000 0.500000
v 0.389644 -0.500000 0.475000
v 0.389644 -0.500000 0.475000
v 0.475000 -0.500000 0.389645
v 0.475000 -0.500000 0.389645
v 0.500000 -0.475000 0.400000
v 0.500000 -0.475000 0.400000
v 0.500000 -0.475000 0.400000
v -0.475000 0.500000 0.400000
v -0.475000 0.500000 0.400000
v -0.475000 0.500000 0.400000
v -0.500000 0.475000 0.389644
v -0.500000 0.475000 0.389644
v -0.500000 0.389645 0.475000
v -0.500000 0.389645 0.475000
v -0.475000 0.400000 0.500000
v -0.475000 0.400000 0.500000
v -0.475000 0.400000 0.500000
vt 0.473333 0.143480
vt 0.707475 0.149152
vt 0.593240 0.029245
vt 0.720266 0.402674
vt 0.725938 0.168532
vt 0.606031 0.282767
vt 0.859553 0.269976
vt 0.865225 0.035834
vt 0.745318 0.150069
vt 0.844063 0.542319
vt 0.601549 0.525018
vt 0.600995 0.547858
vt 0.843369 0.294636
vt 0.848908 0.537703
vt 0.866210 0.295189
vt 0.707475 0.149152
vt 0.725938 0.168532
vt 0.733490 0.142852
vt 0.707475 0.149152
vt 0.606031 0.282767
vt 0.725938 0.168532
vt 0.593240 0.029245
vt 0.726855 0.130689
vt 0.612619 0.010782
vt 0.840173 0.288439
vt 0.745318 0.150069
vt 0.725938 0.168532
vt 0.985964 0.154166
vt 0.979460 0.155741
vt 0.984076 0.160586
vt 0.721841 0.409178
vt 0.720266 0.402674
vt 0.715420 0.407290
vt 0.468487 0.148096
vt 0.473333 0.143480
vt 0.466912 0.141592
vt 0.848908 0.537703
vt 0.847021 0.544123
vt 0.853524 0.542548
vt 0.848908 0.537703
vt 0.983709 0.418522
vt 0.979093 0.413677
vt 0.713879 0.666346
vt 0.848679 0.547164
vt 0.844063 0.542319
vt 0.724882 0.407519
vt 0.844063 0.542319
vt 0.848908 0.537703
vt 0.606585 0.007289
vt 0.593240 0.029245
vt 0.612619 0.010782
vt 0.862749 0.276173
vt 0.840173 0.288439
vt 0.846208 0.291932
vt 0.584075 0.269422
vt 0.606031 0.282767
vt 0.587568 0.263387
vt 0.587205 0.025752
vt 0.473333 0.143480
vt 0.593240 0.029245
vt 0.581371 0.266584
vt 0.473333 0.143480
vt 0.468487 0.148096
vt 0.865588 0.273469
vt 0.979460 0.155741
vt 0.859553 0.269976
vt 0.871422 0.032637
vt 0.979460 0.155741
vt 0.984305 0.151124
vt 0.602537 0.288802
vt 0.720266 0.402674
vt 0.606031 0.282767
vt 0.843369 0.294636
vt 0.720266 0.402674
vt 0.724882 0.407519
vt 0.854218 0.790232
vt 0.972706 0.677349
vt 0.848679 0.547164
vt 0.587568 0.263387
vt 0.840173 0.288439
vt 0.979460 0.155741
vt 0.713879 0.666346
vt 0.720037 0.412135
vt 0.724882 0.407519
vt 0.979093 0.413677
vt 0.587568 0.263387
vt 0.707475 0.149152
vt 0.859553 0.269976
vt 0.853524 0.542548
vt 0.718495 0.671191
vt 0.720037 0.412135
vt 0.590043 0.023048
vt 0.859553 0.269976
vt 0.599834 0.285964
vt 0.468717 0.138635
vt 0.587568 0.263387
vt 0.984076 0.160586
vt 0.865225 0.035834
vt 0.715420 0.407290
vt 0.840173 0.288439
vt 0.718495 0.671191
vt 0.831377 0.789679
vn 0.0000 1.0000 0.0000
vn 0.0000 0.0000 1.0000
vn 1.0000 0.0000 0.0000
vn -1.0000 0.0000 0.0000
vn 0.0000 -1.0000 0.0000
vn 0.5773 0.5773 0.5773
vn 0.0000 0.7071 0.7071
vn 0.7071 0.7071 0.0000
vn 0.7071 0.0000 0.7071
vn 0.5773 -0.5773 -0.5773
vn -0.5773 -0.5773 0.5773
vn -0.5773 0.5773 -0.5773
vn -0.5773 -0.5773 -0.5773
vn 0.0000 -0.7071 -0.7071
vn -0.7071 0.0000 -0.7071
vn -0.7071 -0.7071 0.0000
vn 0.5000 0.5000 -0.7071
vn 0.5000 -0.7071 0.5000
vn -0.7071 0.5000 0.5000
vn 0.0000 0.7071 -0.7071
vn -0.7071 0.7071 0.0000
vn 0.7071 -0.7071 0.0000
vn 0.7071 0.0000 -0.7071
vn -0.7071 0.0000 0.7071
vn 0.0000 -0.7071 0.7071
vn 0.0000 0.0000 -1.0000
s 1
f 62/1/1 32/2/1 82/3/1
f 53/4/2 35/5/2 102/6/2
f 92/7/3 75/8/3 29/9/3
f 71/10/4 98/11/4 97/12/4
f 87/13/5 68/14/5 88/15/5
f 31/16/6 34/17/6 28/18/6
f 1/19/7 101/20/7 2/21/7
f 81/22/8 30/23/8 74/24/8
f 84/25/9 3/26/9 36/27/9
f 40/28/10 43/29/10 37/30/10
f 49/31/11 52/32/11 46/33/11
f 58/34/12 61/35/12 55/36/12
f 67/37/13 70/38/13 64/39/13
f 69/40/14 41/41/14 39/42/14
f 60/43/15 66/44/15 14/45/15
f 51/46/16 72/47/16 13/48/16
f 76/49/17 80/50/17 73/51/17
f 89/52/18 83/53/18 86/54/18
f 96/55/19 100/56/19 93/57/19
f 79/58/20 63/59/20 21/60/20
f 26/61/21 11/62/21 10/63/21
f 16/64/22 45/65/22 17/66/22
f 77/67/23 5/68/23 42/69/23
f 24/70/24 54/71/24 25/72/24
f 18/73/25 8/74/25 7/75/25
f 22/76/26 4/77/26 15/78/26
f 62/1/1 95/79/1 32/2/1
f 53/4/2 85/80/2 35/5/2
f 92/7/3 44/81/3 75/8/3
f 97/12/4 59/82/4 71/10/4
f 71/10/4 47/83/4 98/11/4
f 50/84/5 68/14/5 87/13/5
f 68/14/5 38/85/5 88/15/5
f 1/19/7 94/86/7 101/20/7
f 81/22/8 33/87/8 30/23/8
f 84/25/9 91/88/9 3/26/9
f 69/40/14 65/89/14 41/41/14
f 60/43/15 56/90/15 66/44/15
f 51/46/16 48/91/16 72/47/16
f 76/49/17 78/92/17 80/50/17
f 89/52/18 90/93/18 83/53/18
f 96/55/19 99/94/19 100/56/19
f 79/58/20 57/95/20 63/59/20
f 26/61/21 27/96/21 11/62/21
f 16/64/22 6/97/22 45/65/22
f 77/67/23 23/98/23 5/68/23
f 24/70/24 9/99/24 54/71/24
f 18/73/25 19/100/25 8/74/25
f 12/101/26 20/102/26 15/78/26
f 20/102/26 22/76/26 15/78/26
