# Blender v2.79 (sub 0) OBJ File: 'rubik.blend'
# www.blender.org
v 0.500000 -0.500000 -0.400000
v 0.500000 -0.400000 -0.500000
v 0.500000 0.400000 -0.500000
v 0.500000 0.500000 -0.400000
v 0.500000 -0.400000 0.500000
v 0.500000 -0.500000 0.400000
v 0.500000 0.500000 0.400000
v 0.500000 0.400000 0.500000
v -0.500000 -0.389645 -0.475000
v -0.475000 -0.400000 -0.500000
v -0.500000 -0.475000 -0.389645
v -0.475000 -0.500000 -0.400000
v -0.500000 0.475000 -0.389645
v -0.475000 0.500000 -0.400000
v -0.500000 0.389645 -0.475000
v -0.475000 0.400000 -0.500000
v -0.500000 -0.475000 0.389645
v -0.475000 -0.500000 0.400000
v -0.500000 -0.389645 0.475000
v -0.475000 -0.400000 0.500000
v -0.500000 0.389645 0.475000
v -0.475000 0.400000 0.500000
v -0.500000 0.475000 0.389645
v -0.475000 0.500000 0.400000
v -0.475000 -0.400000 0.500000
v -0.475000 -0.400000 0.500000
v -0.475000 -0.400000 0.500000
v -0.500000 -0.389645 0.475000
v -0.500000 -0.389645 0.475000
v -0.500000 -0.475000 0.389645
v -0.500000 -0.475000 0.389645
v -0.475000 -0.500000 0.400000
v -0.475000 -0.500000 0.400000
v -0.475000 -0.500000 0.400000
v -0.475000 0.500000 0.400000
v -0.475000 0.500000 0.400000
v -0.475000 0.500000 0.400000
v -0.500000 0.475000 0.389645
v -0.500000 0.475000 0.389645
v -0.500000 0.389645 0.475000
v -0.500000 0.389645 0.475000
v -0.475000 0.400000 0.500000
v -0.475000 0.400000 0.500000
v -0.475000 0.400000 0.500000
v -0.475000 -0.500000 -0.400000
v -0.475000 -0.500000 -0.400000
v -0.475000 -0.500000 -0.400000
v -0.500000 -0.475000 -0.389645
v -0.500000 -0.475000 -0.389645
v -0.500000 -0.389645 -0.475000
v -0.500000 -0.389645 -0.475000
v -0.475000 -0.400000 -0.500000
v -0.475000 -0.400000 -0.500000
v -0.475000 -0.400000 -0.500000
v -0.475000 0.400000 -0.500000
v -0.475000 0.400000 -0.500000
v -0.475000 0.400000 -0.500000
v -0.500000 0.389645 -0.475000
v -0.500000 0.389645 -0.475000
v -0.500000 0.475000 -0.389645
v -0.500000 0.475000 -0.389645
v -0.475000 0.500000 -0.400000
v -0.475000 0.500000 -0.400000
v -0.475000 0.500000 -0.400000
v 0.500000 -0.500000 -0.400000
v 0.500000 -0.400000 -0.500000
v 0.500000 0.400000 -0.500000
v 0.500000 -0.500000 0.400000
v 0.500000 0.500000 -0.400000
v 0.500000 0.500000 0.400000
v 0.500000 -0.400000 0.500000
v 0.500000 0.400000 0.500000
vn -1.0000 0.0000 0.0000
vn 0.0000 -1.0000 0.0000
vn 0.0000 -0.7071 0.7071
vn 0.0000 0.7071 0.7071
vn 0.0000 0.0000 1.0000
vn 0.0000 0.0000 -1.0000
vn 0.0000 1.0000 0.0000
vn 0.0000 0.7071 -0.7071
vn -0.7071 -0.5000 0.5000
vn -0.7071 0.5000 0.5000
vn -0.7071 -0.5000 -0.5000
vn -0.7071 0.5000 -0.5000
vn -0.7071 -0.7071 0.0000
vn -0.7071 0.0000 -0.7071
vn -0.7071 0.7071 0.0000
vn -0.7071 0.0000 0.7071
vn 0.0000 -0.7071 -0.7071
s 1
f 39//1 59//1 49//1
f 34//2 1//2 6//2
f 68//3 26//3 33//3
f 36//4 72//4 70//4
f 8//5 27//5 5//5
f 57//6 2//6 53//6
f 7//7 64//7 37//7
f 69//8 56//8 63//8
f 31//9 25//9 28//9
f 41//10 35//10 38//10
f 51//11 45//11 48//11
f 61//12 55//12 58//12
f 11//13 18//13 17//13
f 15//14 10//14 9//14
f 23//15 14//15 13//15
f 19//16 22//16 21//16
f 12//17 66//17 65//17
f 49//1 30//1 29//1
f 29//1 40//1 39//1
f 39//1 60//1 59//1
f 59//1 50//1 49//1
f 49//1 29//1 39//1
f 34//2 46//2 1//2
f 68//3 71//3 26//3
f 36//4 43//4 72//4
f 8//5 44//5 27//5
f 57//6 3//6 2//6
f 7//7 4//7 64//7
f 69//8 67//8 56//8
f 31//9 32//9 25//9
f 41//10 42//10 35//10
f 51//11 52//11 45//11
f 61//12 62//12 55//12
f 11//13 47//13 18//13
f 15//14 16//14 10//14
f 23//15 24//15 14//15
f 19//16 20//16 22//16
f 12//17 54//17 66//17
