# Blender v2.79 (sub 0) OBJ File: 'rubik.blend'
# www.blender.org
v 0.000000 0.000000 0.000000
v 0.000000 -1.000000 0.000000
v 0.000000 0.000000 1.000000
v 0.000000 -1.000000 1.000000
v 1.000000 -0.075000 0.075000
v 0.975000 0.000000 0.000000
v 1.000000 -0.925000 0.075000
v 0.975000 -1.000000 0.000000
v 1.000000 -0.075000 0.925000
v 0.975000 0.000000 1.000000
v 1.000000 -0.925000 0.925000
v 0.975000 -1.000000 1.000000
v 1.000000 -0.025000 0.025000
v 1.000000 -0.975000 0.025000
v 1.000000 -0.025000 0.975000
v 1.000000 -0.975000 0.975000
v 0.990000 -0.075000 0.075000
v 0.990000 -0.925000 0.075000
v 0.990000 -0.075000 0.925000
v 0.990000 -0.925000 0.925000
vn 0.0000 1.0000 0.0000
vn 0.0000 0.0000 1.0000
vn 0.0000 0.0000 -1.0000
vn 0.0000 -1.0000 0.0000
vn 0.7071 0.0000 -0.7071
vn 0.7071 0.7071 0.0000
vn 0.7071 -0.7071 0.0000
vn 0.7071 0.0000 0.7071
vn 1.0000 0.0000 0.0000
s off
f 7//1 20//1 11//1
f 4//2 10//2 3//2
f 1//3 8//3 2//3
f 12//4 2//4 8//4
f 14//5 6//5 13//5
f 10//6 13//6 6//6
f 16//7 8//7 14//7
f 12//8 15//8 10//8
f 1//1 10//1 6//1
f 7//9 13//9 5//9
f 5//9 15//9 9//9
f 11//9 14//9 7//9
f 9//9 16//9 11//9
f 17//9 20//9 18//9
f 5//2 18//2 7//2
f 11//3 19//3 9//3
f 9//4 17//4 5//4
f 7//1 18//1 20//1
f 4//2 12//2 10//2
f 1//3 6//3 8//3
f 12//4 4//4 2//4
f 14//5 8//5 6//5
f 10//6 15//6 13//6
f 16//7 12//7 8//7
f 12//8 16//8 15//8
f 1//1 3//1 10//1
f 7//9 14//9 13//9
f 5//9 13//9 15//9
f 11//9 16//9 14//9
f 9//9 15//9 16//9
f 17//9 19//9 20//9
f 5//2 17//2 18//2
f 11//3 20//3 19//3
f 9//4 19//4 17//4
